<?xml version="1.0" encoding="utf-8"?>
<!-- Generated by IcoMoon.io -->
<!DOCTYPE svg PUBLIC "-//W3C//DTD SVG 1.1//EN" "http://www.w3.org/Graphics/SVG/1.1/DTD/svg11.dtd">
<svg version="1.1" xmlns="http://www.w3.org/2000/svg" xmlns:xlink="http://www.w3.org/1999/xlink" width="200" height="200" viewBox="0 0 200 200">
<g>
</g>
	<path d="M26.62 146.666c-14.687 0-26.62 11.979-26.62 26.577 0 14.679 11.934 26.524 26.62 26.524 14.739 0 26.659-11.845 26.659-26.524-0-14.598-11.919-26.577-26.659-26.577zM0.030 67.955v38.332c24.958 0 48.429 9.76 66.105 27.444 17.653 17.64 27.399 41.218 27.399 66.27h38.5c-0-72.816-59.235-132.045-132.004-132.045zM0.076 0v38.351c89.020 0 161.476 72.526 161.476 161.649h38.448c0-110.248-89.698-200-199.924-200z" fill="#FFFFFF" />
</svg>
