<?xml version="1.0" encoding="utf-8"?>
<!-- Generated by IcoMoon.io -->
<!DOCTYPE svg PUBLIC "-//W3C//DTD SVG 1.1//EN" "http://www.w3.org/Graphics/SVG/1.1/DTD/svg11.dtd">
<svg version="1.1" xmlns="http://www.w3.org/2000/svg" xmlns:xlink="http://www.w3.org/1999/xlink" width="200" height="200" viewBox="0 0 200 200">
<g>
</g>
	<path d="M109.193 12.5c0 0-39.249 0-52.332 0-23.461 0-45.541 17.775-45.541 38.364 0 21.040 15.993 38.021 39.861 38.021 1.66 0 3.273-0.033 4.852-0.147-1.549 2.966-2.657 6.306-2.657 9.774 0 5.847 3.145 10.588 7.123 14.458-3.005 0-5.907 0.087-9.073 0.087-29.059-0-51.426 18.507-51.426 37.699 0 18.902 24.52 30.725 53.581 30.725 33.13 0 51.427-18.798 51.427-37.701 0-15.156-4.472-24.233-18.298-34.011-4.73-3.348-13.775-11.491-13.775-16.278 0-5.609 1.601-8.373 10.045-14.97 8.655-6.763 14.78-16.27 14.78-27.327 0-13.165-5.863-25.996-16.87-30.229h16.593l11.711-8.466zM90.914 140.519c0.415 1.752 0.641 3.556 0.641 5.396 0 15.273-9.842 27.209-38.081 27.209-20.086 0-34.593-12.716-34.593-27.988 0-14.969 17.993-27.43 38.079-27.213 4.688 0.050 9.056 0.804 13.021 2.088 10.904 7.583 18.726 11.868 20.932 20.509zM58.754 83.55c-13.484-0.403-26.296-15.083-28.623-32.785-2.327-17.708 6.713-31.258 20.193-30.857 13.479 0.405 26.296 14.612 28.625 32.316 2.325 17.707-6.717 31.73-20.194 31.327zM162.5 50v-37.5h-12.5v37.5h-37.5v12.5h37.5v37.5h12.5v-37.5h37.5v-12.5z" fill="#FFFFFF" />
</svg>
