<?xml version="1.0" encoding="utf-8"?>
<!-- Generated by IcoMoon.io -->
<!DOCTYPE svg PUBLIC "-//W3C//DTD SVG 1.1//EN" "http://www.w3.org/Graphics/SVG/1.1/DTD/svg11.dtd">
<svg version="1.1" xmlns="http://www.w3.org/2000/svg" xmlns:xlink="http://www.w3.org/1999/xlink" width="200" height="200" viewBox="0 0 200 200">
<g>
</g>
	<path d="M200 37.972c-7.359 3.263-15.266 5.469-23.566 6.461 8.471-5.078 14.978-13.119 18.041-22.701-7.929 4.703-16.71 8.117-26.057 9.957-7.484-7.975-18.149-12.957-29.95-12.957-22.661 0-41.033 18.371-41.033 41.031 0 3.216 0.363 6.348 1.063 9.351-34.102-1.712-64.336-18.047-84.574-42.872-3.532 6.060-5.556 13.109-5.556 20.629 0 14.236 7.244 26.795 18.254 34.154-6.726-0.213-13.053-2.059-18.585-5.132-0.004 0.171-0.004 0.343-0.004 0.516 0 19.88 14.144 36.464 32.914 40.234-3.443 0.937-7.068 1.44-10.81 1.44-2.644 0-5.214-0.258-7.72-0.737 5.222 16.301 20.375 28.165 38.33 28.495-14.043 11.006-31.736 17.565-50.96 17.565-3.312 0-6.578-0.194-9.788-0.574 18.159 11.643 39.727 18.436 62.899 18.436 75.473 0 116.745-62.524 116.745-116.747 0-1.779-0.040-3.548-0.119-5.309 8.019-5.785 14.975-13.012 20.476-21.24z" fill="#FFFFFF" />
</svg>
